# xmcd CD database file
#
# Track frame offsets:
#	187
#	11712
#	29722
#	41295
#	59842
#	76395
#	89520
#	107117
#	116700
#	131102
#
# Disc length: 1943 seconds
#
# Revision: 4
# Processed by: cddbd v1.5.2PL0 Copyright (c) Steve Scherf et al.
# Submitted via: CDex 1.51
#
DISCID=8d07950a
DTITLE=Vince Gill - Pocket Full Of Gold
DYEAR=1991
DGENRE=Country
TTITLE0=I Quit
TTITLE1=Look At Us
TTITLE2=Take Your Memory With You
TTITLE3=Pocket Full Of Gold
TTITLE4=The Strings That Tie You Down
TTITLE5=Liza Jane
TTITLE6=If I Didn't Have You In My World
TTITLE7=A Little Left Over
TTITLE8=What's A Man To Do
TTITLE9=Sparkle
EXTD=YEAR: 1991
EXTT0=
EXTT1=
EXTT2=
EXTT3=
EXTT4=
EXTT5=
EXTT6=
EXTT7=
EXTT8=
EXTT9=
PLAYORDER=
